<mxfile host="app.diagrams.net" modified="2022-03-30T13:42:45.809Z" agent="5.0 (Windows NT 10.0; Win64; x64) AppleWebKit/537.36 (KHTML, like Gecko) Chrome/99.0.4844.84 Safari/537.36" etag="7xdcBnerp_QUyoV1n88Y" version="17.2.4" type="github">
  <diagram id="m4xwYwGNQljad2coDXuX" name="Page-1">
    <mxGraphModel dx="1268" dy="260" grid="0" gridSize="10" guides="1" tooltips="1" connect="1" arrows="1" fold="1" page="1" pageScale="1" pageWidth="827" pageHeight="1169" math="0" shadow="0">
      <root>
        <mxCell id="0" />
        <mxCell id="1" parent="0" />
        <mxCell id="CPf8XrMWJeluNs656hxi-1" value="&lt;b&gt;SellableItem&lt;/b&gt;" style="swimlane;fontStyle=0;align=center;verticalAlign=middle;childLayout=stackLayout;horizontal=1;startSize=29;horizontalStack=0;resizeParent=1;resizeParentMax=0;resizeLast=0;collapsible=0;marginBottom=0;html=1;fontSize=12;labelPosition=center;verticalLabelPosition=middle;container=0;strokeColor=default;swimlaneLine=1;rounded=0;shadow=0;glass=0;sketch=0;perimeterSpacing=0;" vertex="1" parent="1">
          <mxGeometry x="301" y="94" width="120" height="263" as="geometry" />
        </mxCell>
        <mxCell id="CPf8XrMWJeluNs656hxi-2" value="- id: UUID" style="text;strokeColor=none;fillColor=none;align=left;verticalAlign=top;spacingLeft=4;spacingRight=4;overflow=hidden;rotatable=0;points=[[0,0.5],[1,0.5]];portConstraint=eastwest;container=0;fontStyle=0" vertex="1" parent="CPf8XrMWJeluNs656hxi-1">
          <mxGeometry y="29" width="120" height="26" as="geometry" />
        </mxCell>
        <mxCell id="CPf8XrMWJeluNs656hxi-3" value="- code : String" style="text;strokeColor=none;fillColor=none;align=left;verticalAlign=top;spacingLeft=4;spacingRight=4;overflow=hidden;rotatable=0;points=[[0,0.5],[1,0.5]];portConstraint=eastwest;container=0;fontStyle=0" vertex="1" parent="CPf8XrMWJeluNs656hxi-1">
          <mxGeometry y="55" width="120" height="26" as="geometry" />
        </mxCell>
        <mxCell id="CPf8XrMWJeluNs656hxi-4" value="- name: String" style="text;strokeColor=none;fillColor=none;align=left;verticalAlign=top;spacingLeft=4;spacingRight=4;overflow=hidden;rotatable=0;points=[[0,0.5],[1,0.5]];portConstraint=eastwest;container=0;fontStyle=0" vertex="1" parent="CPf8XrMWJeluNs656hxi-1">
          <mxGeometry y="81" width="120" height="26" as="geometry" />
        </mxCell>
        <mxCell id="CPf8XrMWJeluNs656hxi-5" value="- description: String" style="text;strokeColor=none;fillColor=none;align=left;verticalAlign=top;spacingLeft=4;spacingRight=4;overflow=hidden;rotatable=0;points=[[0,0.5],[1,0.5]];portConstraint=eastwest;container=0;fontStyle=0" vertex="1" parent="CPf8XrMWJeluNs656hxi-1">
          <mxGeometry y="107" width="120" height="26" as="geometry" />
        </mxCell>
        <mxCell id="CPf8XrMWJeluNs656hxi-6" value="- unitPrice: Float" style="text;strokeColor=none;fillColor=none;align=left;verticalAlign=top;spacingLeft=4;spacingRight=4;overflow=hidden;rotatable=0;points=[[0,0.5],[1,0.5]];portConstraint=eastwest;container=0;fontStyle=0" vertex="1" parent="CPf8XrMWJeluNs656hxi-1">
          <mxGeometry y="133" width="120" height="26" as="geometry" />
        </mxCell>
        <mxCell id="CPf8XrMWJeluNs656hxi-93" value="- vat: Float" style="text;strokeColor=none;fillColor=none;align=left;verticalAlign=top;spacingLeft=4;spacingRight=4;overflow=hidden;rotatable=0;points=[[0,0.5],[1,0.5]];portConstraint=eastwest;container=0;fontStyle=0" vertex="1" parent="CPf8XrMWJeluNs656hxi-1">
          <mxGeometry y="159" width="120" height="26" as="geometry" />
        </mxCell>
        <mxCell id="CPf8XrMWJeluNs656hxi-95" value="- outsourced: Boolean" style="text;strokeColor=none;fillColor=none;align=left;verticalAlign=top;spacingLeft=4;spacingRight=4;overflow=hidden;rotatable=0;points=[[0,0.5],[1,0.5]];portConstraint=eastwest;container=0;fontStyle=0" vertex="1" parent="CPf8XrMWJeluNs656hxi-1">
          <mxGeometry y="185" width="120" height="26" as="geometry" />
        </mxCell>
        <mxCell id="CPf8XrMWJeluNs656hxi-94" value="- enabled: Boolean" style="text;strokeColor=none;fillColor=none;align=left;verticalAlign=top;spacingLeft=4;spacingRight=4;overflow=hidden;rotatable=0;points=[[0,0.5],[1,0.5]];portConstraint=eastwest;container=0;fontStyle=0" vertex="1" parent="CPf8XrMWJeluNs656hxi-1">
          <mxGeometry y="211" width="120" height="26" as="geometry" />
        </mxCell>
        <mxCell id="CPf8XrMWJeluNs656hxi-7" value="- details: String" style="text;strokeColor=none;fillColor=none;align=left;verticalAlign=top;spacingLeft=4;spacingRight=4;overflow=hidden;rotatable=0;points=[[0,0.5],[1,0.5]];portConstraint=eastwest;container=0;fontStyle=0" vertex="1" parent="CPf8XrMWJeluNs656hxi-1">
          <mxGeometry y="237" width="120" height="26" as="geometry" />
        </mxCell>
        <mxCell id="CPf8XrMWJeluNs656hxi-10" value="&lt;b&gt;DiscountRange&lt;/b&gt;" style="swimlane;fontStyle=0;align=center;verticalAlign=middle;childLayout=stackLayout;horizontal=1;startSize=29;horizontalStack=0;resizeParent=1;resizeParentMax=0;resizeLast=0;collapsible=0;marginBottom=0;html=1;fontSize=12;labelPosition=center;verticalLabelPosition=middle;container=0;strokeColor=default;swimlaneLine=1;rounded=0;shadow=0;glass=0;sketch=0;perimeterSpacing=0;" vertex="1" parent="1">
          <mxGeometry x="562" y="159" width="120" height="133" as="geometry" />
        </mxCell>
        <mxCell id="CPf8XrMWJeluNs656hxi-11" value="- id: Long" style="text;strokeColor=none;fillColor=none;align=left;verticalAlign=top;spacingLeft=4;spacingRight=4;overflow=hidden;rotatable=0;points=[[0,0.5],[1,0.5]];portConstraint=eastwest;container=0;fontStyle=0" vertex="1" parent="CPf8XrMWJeluNs656hxi-10">
          <mxGeometry y="29" width="120" height="26" as="geometry" />
        </mxCell>
        <mxCell id="CPf8XrMWJeluNs656hxi-12" value="- fromUnit: Float" style="text;strokeColor=none;fillColor=none;align=left;verticalAlign=top;spacingLeft=4;spacingRight=4;overflow=hidden;rotatable=0;points=[[0,0.5],[1,0.5]];portConstraint=eastwest;container=0;fontStyle=0" vertex="1" parent="CPf8XrMWJeluNs656hxi-10">
          <mxGeometry y="55" width="120" height="26" as="geometry" />
        </mxCell>
        <mxCell id="CPf8XrMWJeluNs656hxi-13" value="- toUnit: Float" style="text;strokeColor=none;fillColor=none;align=left;verticalAlign=top;spacingLeft=4;spacingRight=4;overflow=hidden;rotatable=0;points=[[0,0.5],[1,0.5]];portConstraint=eastwest;container=0;fontStyle=0" vertex="1" parent="CPf8XrMWJeluNs656hxi-10">
          <mxGeometry y="81" width="120" height="26" as="geometry" />
        </mxCell>
        <mxCell id="CPf8XrMWJeluNs656hxi-14" value="- discount: Float" style="text;strokeColor=none;fillColor=none;align=left;verticalAlign=top;spacingLeft=4;spacingRight=4;overflow=hidden;rotatable=0;points=[[0,0.5],[1,0.5]];portConstraint=eastwest;container=0;fontStyle=0" vertex="1" parent="CPf8XrMWJeluNs656hxi-10">
          <mxGeometry y="107" width="120" height="26" as="geometry" />
        </mxCell>
        <mxCell id="CPf8XrMWJeluNs656hxi-32" style="edgeStyle=orthogonalEdgeStyle;rounded=0;orthogonalLoop=1;jettySize=auto;html=1;endArrow=block;endFill=0;endSize=5;startSize=5;" edge="1" parent="1" source="CPf8XrMWJeluNs656hxi-17" target="CPf8XrMWJeluNs656hxi-1">
          <mxGeometry relative="1" as="geometry">
            <Array as="points">
              <mxPoint x="376" y="412" />
              <mxPoint x="376" y="412" />
            </Array>
          </mxGeometry>
        </mxCell>
        <mxCell id="CPf8XrMWJeluNs656hxi-42" style="edgeStyle=orthogonalEdgeStyle;rounded=0;orthogonalLoop=1;jettySize=auto;html=1;endArrow=classic;endFill=1;startSize=5;endSize=5;dashed=1;" edge="1" parent="1" source="CPf8XrMWJeluNs656hxi-17" target="CPf8XrMWJeluNs656hxi-37">
          <mxGeometry relative="1" as="geometry">
            <Array as="points">
              <mxPoint x="331" y="474" />
              <mxPoint x="-83" y="474" />
            </Array>
          </mxGeometry>
        </mxCell>
        <mxCell id="CPf8XrMWJeluNs656hxi-17" value="&lt;b&gt;ProductLicenseType&lt;/b&gt;" style="swimlane;fontStyle=0;align=center;verticalAlign=middle;childLayout=stackLayout;horizontal=1;startSize=29;horizontalStack=0;resizeParent=1;resizeParentMax=0;resizeLast=0;collapsible=0;marginBottom=0;html=1;fontSize=12;labelPosition=center;verticalLabelPosition=middle;container=0;strokeColor=default;swimlaneLine=1;rounded=0;shadow=0;glass=0;sketch=0;perimeterSpacing=0;" vertex="1" parent="1">
          <mxGeometry x="304" y="390" width="120" height="55" as="geometry" />
        </mxCell>
        <mxCell id="CPf8XrMWJeluNs656hxi-18" value="- id: Long" style="text;strokeColor=none;fillColor=none;align=left;verticalAlign=top;spacingLeft=4;spacingRight=4;overflow=hidden;rotatable=0;points=[[0,0.5],[1,0.5]];portConstraint=eastwest;container=0;fontStyle=0" vertex="1" parent="CPf8XrMWJeluNs656hxi-17">
          <mxGeometry y="29" width="120" height="26" as="geometry" />
        </mxCell>
        <mxCell id="CPf8XrMWJeluNs656hxi-31" style="edgeStyle=orthogonalEdgeStyle;rounded=0;orthogonalLoop=1;jettySize=auto;html=1;endArrow=block;endFill=0;endSize=5;startSize=5;" edge="1" parent="1" source="CPf8XrMWJeluNs656hxi-22" target="CPf8XrMWJeluNs656hxi-1">
          <mxGeometry relative="1" as="geometry">
            <Array as="points">
              <mxPoint x="580" y="369" />
              <mxPoint x="364" y="369" />
            </Array>
          </mxGeometry>
        </mxCell>
        <mxCell id="CPf8XrMWJeluNs656hxi-22" value="&lt;b&gt;SupportChannel&lt;/b&gt;" style="swimlane;fontStyle=0;align=center;verticalAlign=middle;childLayout=stackLayout;horizontal=1;startSize=29;horizontalStack=0;resizeParent=1;resizeParentMax=0;resizeLast=0;collapsible=0;marginBottom=0;html=1;fontSize=12;labelPosition=center;verticalLabelPosition=middle;container=0;strokeColor=default;swimlaneLine=1;rounded=0;shadow=0;glass=0;sketch=0;perimeterSpacing=0;" vertex="1" parent="1">
          <mxGeometry x="534" y="390" width="120" height="107" as="geometry" />
        </mxCell>
        <mxCell id="CPf8XrMWJeluNs656hxi-23" value="- id: Long" style="text;strokeColor=none;fillColor=none;align=left;verticalAlign=top;spacingLeft=4;spacingRight=4;overflow=hidden;rotatable=0;points=[[0,0.5],[1,0.5]];portConstraint=eastwest;container=0;fontStyle=0" vertex="1" parent="CPf8XrMWJeluNs656hxi-22">
          <mxGeometry y="29" width="120" height="26" as="geometry" />
        </mxCell>
        <mxCell id="CPf8XrMWJeluNs656hxi-26" value="- name : String " style="text;strokeColor=none;fillColor=none;align=left;verticalAlign=top;spacingLeft=4;spacingRight=4;overflow=hidden;rotatable=0;points=[[0,0.5],[1,0.5]];portConstraint=eastwest;container=0;fontStyle=0" vertex="1" parent="CPf8XrMWJeluNs656hxi-22">
          <mxGeometry y="55" width="120" height="26" as="geometry" />
        </mxCell>
        <mxCell id="CPf8XrMWJeluNs656hxi-30" value="- description: String " style="text;strokeColor=none;fillColor=none;align=left;verticalAlign=top;spacingLeft=4;spacingRight=4;overflow=hidden;rotatable=0;points=[[0,0.5],[1,0.5]];portConstraint=eastwest;container=0;fontStyle=0" vertex="1" parent="CPf8XrMWJeluNs656hxi-22">
          <mxGeometry y="81" width="120" height="26" as="geometry" />
        </mxCell>
        <mxCell id="CPf8XrMWJeluNs656hxi-33" style="edgeStyle=orthogonalEdgeStyle;rounded=0;orthogonalLoop=1;jettySize=auto;html=1;endArrow=block;endFill=0;endSize=5;startSize=5;" edge="1" parent="1" source="CPf8XrMWJeluNs656hxi-24" target="CPf8XrMWJeluNs656hxi-1">
          <mxGeometry relative="1" as="geometry">
            <Array as="points">
              <mxPoint x="177" y="369" />
              <mxPoint x="364" y="369" />
            </Array>
          </mxGeometry>
        </mxCell>
        <mxCell id="CPf8XrMWJeluNs656hxi-24" value="&lt;b&gt;ServiceType&lt;/b&gt;" style="swimlane;fontStyle=0;align=center;verticalAlign=middle;childLayout=stackLayout;horizontal=1;startSize=29;horizontalStack=0;resizeParent=1;resizeParentMax=0;resizeLast=0;collapsible=0;marginBottom=0;html=1;fontSize=12;labelPosition=center;verticalLabelPosition=middle;container=0;strokeColor=default;swimlaneLine=1;rounded=0;shadow=0;glass=0;sketch=0;perimeterSpacing=0;" vertex="1" parent="1">
          <mxGeometry x="120" y="390" width="120" height="55" as="geometry" />
        </mxCell>
        <mxCell id="CPf8XrMWJeluNs656hxi-34" style="edgeStyle=orthogonalEdgeStyle;rounded=0;orthogonalLoop=1;jettySize=auto;html=1;endArrow=none;endFill=0;startSize=5;endSize=5;" edge="1" parent="1" source="CPf8XrMWJeluNs656hxi-10" target="CPf8XrMWJeluNs656hxi-1">
          <mxGeometry relative="1" as="geometry">
            <Array as="points">
              <mxPoint x="487" y="226" />
              <mxPoint x="487" y="226" />
            </Array>
          </mxGeometry>
        </mxCell>
        <mxCell id="CPf8XrMWJeluNs656hxi-35" value="*" style="edgeLabel;html=1;align=center;verticalAlign=middle;resizable=0;points=[];" vertex="1" connectable="0" parent="CPf8XrMWJeluNs656hxi-34">
          <mxGeometry x="-0.7048" y="2" relative="1" as="geometry">
            <mxPoint x="1" as="offset" />
          </mxGeometry>
        </mxCell>
        <mxCell id="CPf8XrMWJeluNs656hxi-36" value="*" style="edgeLabel;html=1;align=center;verticalAlign=middle;resizable=0;points=[];" vertex="1" connectable="0" parent="CPf8XrMWJeluNs656hxi-34">
          <mxGeometry x="0.7397" relative="1" as="geometry">
            <mxPoint x="1" as="offset" />
          </mxGeometry>
        </mxCell>
        <mxCell id="CPf8XrMWJeluNs656hxi-37" value="&lt;b&gt;&amp;lt;&amp;lt;enum&amp;gt;&amp;gt;&lt;/b&gt;&lt;br&gt;&lt;b&gt;LicenseType&lt;/b&gt;" style="swimlane;fontStyle=0;align=center;verticalAlign=middle;childLayout=stackLayout;horizontal=1;startSize=29;horizontalStack=0;resizeParent=1;resizeParentMax=0;resizeLast=0;collapsible=0;marginBottom=0;html=1;fontSize=12;labelPosition=center;verticalLabelPosition=middle;container=0;swimlaneLine=1;rounded=0;sketch=0;glass=0;" vertex="1" parent="1">
          <mxGeometry x="-200" y="505" width="234" height="137" as="geometry" />
        </mxCell>
        <mxCell id="CPf8XrMWJeluNs656hxi-38" value="PERPETUAL_LICENSE" style="text;strokeColor=none;fillColor=none;align=left;verticalAlign=top;spacingLeft=4;spacingRight=4;overflow=hidden;rotatable=0;points=[[0,0.5],[1,0.5]];portConstraint=eastwest;container=0;fontStyle=0" vertex="1" parent="CPf8XrMWJeluNs656hxi-37">
          <mxGeometry y="29" width="234" height="26" as="geometry" />
        </mxCell>
        <mxCell id="CPf8XrMWJeluNs656hxi-39" value="FLOATING_SUBSCRIPTION_LICENSE" style="text;strokeColor=none;fillColor=none;align=left;verticalAlign=top;spacingLeft=4;spacingRight=4;overflow=hidden;rotatable=0;points=[[0,0.5],[1,0.5]];portConstraint=eastwest;container=0;fontStyle=0" vertex="1" parent="CPf8XrMWJeluNs656hxi-37">
          <mxGeometry y="55" width="234" height="26" as="geometry" />
        </mxCell>
        <mxCell id="CPf8XrMWJeluNs656hxi-40" value="FIXED_SUBSCRIPTION_LICENSE" style="text;whiteSpace=wrap;html=1;fontStyle=0" vertex="1" parent="CPf8XrMWJeluNs656hxi-37">
          <mxGeometry y="81" width="234" height="28" as="geometry" />
        </mxCell>
        <mxCell id="CPf8XrMWJeluNs656hxi-41" value="LICENSE" style="text;whiteSpace=wrap;html=1;fontStyle=0" vertex="1" parent="CPf8XrMWJeluNs656hxi-37">
          <mxGeometry y="109" width="234" height="28" as="geometry" />
        </mxCell>
        <mxCell id="CPf8XrMWJeluNs656hxi-43" value="&lt;b&gt;ServiceCategory&lt;/b&gt;" style="swimlane;fontStyle=0;align=center;verticalAlign=middle;childLayout=stackLayout;horizontal=1;startSize=29;horizontalStack=0;resizeParent=1;resizeParentMax=0;resizeLast=0;collapsible=0;marginBottom=0;html=1;fontSize=12;labelPosition=center;verticalLabelPosition=middle;container=0;strokeColor=default;swimlaneLine=1;rounded=0;shadow=0;glass=0;sketch=0;perimeterSpacing=0;" vertex="1" parent="1">
          <mxGeometry x="120" y="505" width="120" height="159" as="geometry" />
        </mxCell>
        <mxCell id="CPf8XrMWJeluNs656hxi-44" value="- id: Long" style="text;strokeColor=none;fillColor=none;align=left;verticalAlign=top;spacingLeft=4;spacingRight=4;overflow=hidden;rotatable=0;points=[[0,0.5],[1,0.5]];portConstraint=eastwest;container=0;fontStyle=0" vertex="1" parent="CPf8XrMWJeluNs656hxi-43">
          <mxGeometry y="29" width="120" height="26" as="geometry" />
        </mxCell>
        <mxCell id="CPf8XrMWJeluNs656hxi-45" value="- code: String" style="text;strokeColor=none;fillColor=none;align=left;verticalAlign=top;spacingLeft=4;spacingRight=4;overflow=hidden;rotatable=0;points=[[0,0.5],[1,0.5]];portConstraint=eastwest;container=0;fontStyle=0" vertex="1" parent="CPf8XrMWJeluNs656hxi-43">
          <mxGeometry y="55" width="120" height="26" as="geometry" />
        </mxCell>
        <mxCell id="CPf8XrMWJeluNs656hxi-46" value="- name: String" style="text;strokeColor=none;fillColor=none;align=left;verticalAlign=top;spacingLeft=4;spacingRight=4;overflow=hidden;rotatable=0;points=[[0,0.5],[1,0.5]];portConstraint=eastwest;container=0;fontStyle=0" vertex="1" parent="CPf8XrMWJeluNs656hxi-43">
          <mxGeometry y="81" width="120" height="26" as="geometry" />
        </mxCell>
        <mxCell id="CPf8XrMWJeluNs656hxi-47" value="- description: String" style="text;strokeColor=none;fillColor=none;align=left;verticalAlign=top;spacingLeft=4;spacingRight=4;overflow=hidden;rotatable=0;points=[[0,0.5],[1,0.5]];portConstraint=eastwest;container=0;fontStyle=0" vertex="1" parent="CPf8XrMWJeluNs656hxi-43">
          <mxGeometry y="107" width="120" height="26" as="geometry" />
        </mxCell>
        <mxCell id="CPf8XrMWJeluNs656hxi-48" value="- enabled: Boolean" style="text;strokeColor=none;fillColor=none;align=left;verticalAlign=top;spacingLeft=4;spacingRight=4;overflow=hidden;rotatable=0;points=[[0,0.5],[1,0.5]];portConstraint=eastwest;container=0;fontStyle=0" vertex="1" parent="CPf8XrMWJeluNs656hxi-43">
          <mxGeometry y="133" width="120" height="26" as="geometry" />
        </mxCell>
        <mxCell id="CPf8XrMWJeluNs656hxi-49" style="edgeStyle=orthogonalEdgeStyle;rounded=0;orthogonalLoop=1;jettySize=auto;html=1;endArrow=none;endFill=0;startSize=5;endSize=5;" edge="1" parent="1" source="CPf8XrMWJeluNs656hxi-24" target="CPf8XrMWJeluNs656hxi-43">
          <mxGeometry relative="1" as="geometry" />
        </mxCell>
        <mxCell id="CPf8XrMWJeluNs656hxi-50" value="*" style="edgeLabel;html=1;align=center;verticalAlign=middle;resizable=0;points=[];" vertex="1" connectable="0" parent="CPf8XrMWJeluNs656hxi-49">
          <mxGeometry x="-0.7787" y="3" relative="1" as="geometry">
            <mxPoint as="offset" />
          </mxGeometry>
        </mxCell>
        <mxCell id="CPf8XrMWJeluNs656hxi-52" value="1" style="edgeLabel;html=1;align=center;verticalAlign=middle;resizable=0;points=[];" vertex="1" connectable="0" parent="CPf8XrMWJeluNs656hxi-49">
          <mxGeometry x="0.84" y="2" relative="1" as="geometry">
            <mxPoint x="-3" as="offset" />
          </mxGeometry>
        </mxCell>
        <mxCell id="CPf8XrMWJeluNs656hxi-78" style="edgeStyle=orthogonalEdgeStyle;rounded=0;orthogonalLoop=1;jettySize=auto;html=1;endArrow=none;endFill=0;startSize=5;endSize=5;" edge="1" parent="1" source="CPf8XrMWJeluNs656hxi-54" target="CPf8XrMWJeluNs656hxi-70">
          <mxGeometry relative="1" as="geometry">
            <Array as="points">
              <mxPoint x="405" y="721" />
              <mxPoint x="405" y="721" />
            </Array>
          </mxGeometry>
        </mxCell>
        <mxCell id="CPf8XrMWJeluNs656hxi-79" value="*" style="edgeLabel;html=1;align=center;verticalAlign=middle;resizable=0;points=[];" vertex="1" connectable="0" parent="CPf8XrMWJeluNs656hxi-78">
          <mxGeometry x="-0.7355" y="-1" relative="1" as="geometry">
            <mxPoint y="2" as="offset" />
          </mxGeometry>
        </mxCell>
        <mxCell id="CPf8XrMWJeluNs656hxi-80" value="1" style="edgeLabel;html=1;align=center;verticalAlign=middle;resizable=0;points=[];" vertex="1" connectable="0" parent="CPf8XrMWJeluNs656hxi-78">
          <mxGeometry x="0.6383" relative="1" as="geometry">
            <mxPoint x="-1" y="4" as="offset" />
          </mxGeometry>
        </mxCell>
        <mxCell id="CPf8XrMWJeluNs656hxi-81" style="edgeStyle=orthogonalEdgeStyle;rounded=0;orthogonalLoop=1;jettySize=auto;html=1;endArrow=none;endFill=0;startSize=5;endSize=5;" edge="1" parent="1" source="CPf8XrMWJeluNs656hxi-54" target="CPf8XrMWJeluNs656hxi-17">
          <mxGeometry relative="1" as="geometry" />
        </mxCell>
        <mxCell id="CPf8XrMWJeluNs656hxi-82" value="*" style="edgeLabel;html=1;align=center;verticalAlign=middle;resizable=0;points=[];" vertex="1" connectable="0" parent="CPf8XrMWJeluNs656hxi-81">
          <mxGeometry x="0.724" y="-1" relative="1" as="geometry">
            <mxPoint x="-2" as="offset" />
          </mxGeometry>
        </mxCell>
        <mxCell id="CPf8XrMWJeluNs656hxi-83" value="1" style="edgeLabel;html=1;align=center;verticalAlign=middle;resizable=0;points=[];" vertex="1" connectable="0" parent="CPf8XrMWJeluNs656hxi-81">
          <mxGeometry x="-0.716" y="1" relative="1" as="geometry">
            <mxPoint x="-1" y="-1" as="offset" />
          </mxGeometry>
        </mxCell>
        <mxCell id="CPf8XrMWJeluNs656hxi-54" value="&lt;b&gt;Product&lt;/b&gt;" style="swimlane;fontStyle=0;align=center;verticalAlign=middle;childLayout=stackLayout;horizontal=1;startSize=29;horizontalStack=0;resizeParent=1;resizeParentMax=0;resizeLast=0;collapsible=0;marginBottom=0;html=1;fontSize=12;labelPosition=center;verticalLabelPosition=middle;container=0;strokeColor=default;swimlaneLine=1;rounded=0;shadow=0;glass=0;sketch=0;perimeterSpacing=0;" vertex="1" parent="1">
          <mxGeometry x="304" y="505" width="120" height="185" as="geometry" />
        </mxCell>
        <mxCell id="CPf8XrMWJeluNs656hxi-55" value="- id: Long" style="text;strokeColor=none;fillColor=none;align=left;verticalAlign=top;spacingLeft=4;spacingRight=4;overflow=hidden;rotatable=0;points=[[0,0.5],[1,0.5]];portConstraint=eastwest;container=0;fontStyle=0" vertex="1" parent="CPf8XrMWJeluNs656hxi-54">
          <mxGeometry y="29" width="120" height="26" as="geometry" />
        </mxCell>
        <mxCell id="CPf8XrMWJeluNs656hxi-56" value="- code: String" style="text;strokeColor=none;fillColor=none;align=left;verticalAlign=top;spacingLeft=4;spacingRight=4;overflow=hidden;rotatable=0;points=[[0,0.5],[1,0.5]];portConstraint=eastwest;container=0;fontStyle=0" vertex="1" parent="CPf8XrMWJeluNs656hxi-54">
          <mxGeometry y="55" width="120" height="26" as="geometry" />
        </mxCell>
        <mxCell id="CPf8XrMWJeluNs656hxi-57" value="- name: String" style="text;strokeColor=none;fillColor=none;align=left;verticalAlign=top;spacingLeft=4;spacingRight=4;overflow=hidden;rotatable=0;points=[[0,0.5],[1,0.5]];portConstraint=eastwest;container=0;fontStyle=0" vertex="1" parent="CPf8XrMWJeluNs656hxi-54">
          <mxGeometry y="81" width="120" height="26" as="geometry" />
        </mxCell>
        <mxCell id="CPf8XrMWJeluNs656hxi-58" value="- description: String" style="text;strokeColor=none;fillColor=none;align=left;verticalAlign=top;spacingLeft=4;spacingRight=4;overflow=hidden;rotatable=0;points=[[0,0.5],[1,0.5]];portConstraint=eastwest;container=0;fontStyle=0" vertex="1" parent="CPf8XrMWJeluNs656hxi-54">
          <mxGeometry y="107" width="120" height="26" as="geometry" />
        </mxCell>
        <mxCell id="CPf8XrMWJeluNs656hxi-59" value="- enabled: Boolean" style="text;strokeColor=none;fillColor=none;align=left;verticalAlign=top;spacingLeft=4;spacingRight=4;overflow=hidden;rotatable=0;points=[[0,0.5],[1,0.5]];portConstraint=eastwest;container=0;fontStyle=0" vertex="1" parent="CPf8XrMWJeluNs656hxi-54">
          <mxGeometry y="133" width="120" height="26" as="geometry" />
        </mxCell>
        <mxCell id="CPf8XrMWJeluNs656hxi-99" value="- fileDirectory: UUID" style="text;strokeColor=none;fillColor=none;align=left;verticalAlign=top;spacingLeft=4;spacingRight=4;overflow=hidden;rotatable=0;points=[[0,0.5],[1,0.5]];portConstraint=eastwest;container=0;fontStyle=0" vertex="1" parent="CPf8XrMWJeluNs656hxi-54">
          <mxGeometry y="159" width="120" height="26" as="geometry" />
        </mxCell>
        <mxCell id="CPf8XrMWJeluNs656hxi-61" value="&lt;span style=&quot;text-align: left&quot;&gt;&lt;b&gt;ProductCategory&lt;/b&gt;&lt;/span&gt;" style="swimlane;fontStyle=0;align=center;verticalAlign=middle;childLayout=stackLayout;horizontal=1;startSize=29;horizontalStack=0;resizeParent=1;resizeParentMax=0;resizeLast=0;collapsible=0;marginBottom=0;html=1;fontSize=12;labelPosition=center;verticalLabelPosition=middle;container=0;strokeColor=default;swimlaneLine=1;rounded=0;shadow=0;glass=0;sketch=0;perimeterSpacing=0;" vertex="1" parent="1">
          <mxGeometry x="230" y="740" width="120" height="185" as="geometry" />
        </mxCell>
        <mxCell id="CPf8XrMWJeluNs656hxi-62" value="- id: Long" style="text;strokeColor=none;fillColor=none;align=left;verticalAlign=top;spacingLeft=4;spacingRight=4;overflow=hidden;rotatable=0;points=[[0,0.5],[1,0.5]];portConstraint=eastwest;container=0;fontStyle=0" vertex="1" parent="CPf8XrMWJeluNs656hxi-61">
          <mxGeometry y="29" width="120" height="26" as="geometry" />
        </mxCell>
        <mxCell id="CPf8XrMWJeluNs656hxi-63" value="- code: String" style="text;strokeColor=none;fillColor=none;align=left;verticalAlign=top;spacingLeft=4;spacingRight=4;overflow=hidden;rotatable=0;points=[[0,0.5],[1,0.5]];portConstraint=eastwest;container=0;fontStyle=0" vertex="1" parent="CPf8XrMWJeluNs656hxi-61">
          <mxGeometry y="55" width="120" height="26" as="geometry" />
        </mxCell>
        <mxCell id="CPf8XrMWJeluNs656hxi-64" value="- name: String" style="text;strokeColor=none;fillColor=none;align=left;verticalAlign=top;spacingLeft=4;spacingRight=4;overflow=hidden;rotatable=0;points=[[0,0.5],[1,0.5]];portConstraint=eastwest;container=0;fontStyle=0" vertex="1" parent="CPf8XrMWJeluNs656hxi-61">
          <mxGeometry y="81" width="120" height="26" as="geometry" />
        </mxCell>
        <mxCell id="CPf8XrMWJeluNs656hxi-65" value="- description: String" style="text;strokeColor=none;fillColor=none;align=left;verticalAlign=top;spacingLeft=4;spacingRight=4;overflow=hidden;rotatable=0;points=[[0,0.5],[1,0.5]];portConstraint=eastwest;container=0;fontStyle=0" vertex="1" parent="CPf8XrMWJeluNs656hxi-61">
          <mxGeometry y="107" width="120" height="26" as="geometry" />
        </mxCell>
        <mxCell id="CPf8XrMWJeluNs656hxi-66" value="- enabled: Boolean" style="text;strokeColor=none;fillColor=none;align=left;verticalAlign=top;spacingLeft=4;spacingRight=4;overflow=hidden;rotatable=0;points=[[0,0.5],[1,0.5]];portConstraint=eastwest;container=0;fontStyle=0" vertex="1" parent="CPf8XrMWJeluNs656hxi-61">
          <mxGeometry y="133" width="120" height="26" as="geometry" />
        </mxCell>
        <mxCell id="CPf8XrMWJeluNs656hxi-100" value="- fileDirectory: UUID" style="text;strokeColor=none;fillColor=none;align=left;verticalAlign=top;spacingLeft=4;spacingRight=4;overflow=hidden;rotatable=0;points=[[0,0.5],[1,0.5]];portConstraint=eastwest;container=0;fontStyle=0" vertex="1" parent="CPf8XrMWJeluNs656hxi-61">
          <mxGeometry y="159" width="120" height="26" as="geometry" />
        </mxCell>
        <mxCell id="CPf8XrMWJeluNs656hxi-67" style="edgeStyle=orthogonalEdgeStyle;rounded=0;orthogonalLoop=1;jettySize=auto;html=1;endArrow=none;endFill=0;startSize=5;endSize=5;" edge="1" parent="1" source="CPf8XrMWJeluNs656hxi-54" target="CPf8XrMWJeluNs656hxi-61">
          <mxGeometry relative="1" as="geometry">
            <mxPoint x="144" y="722" as="targetPoint" />
            <Array as="points">
              <mxPoint x="324" y="723" />
              <mxPoint x="324" y="723" />
            </Array>
          </mxGeometry>
        </mxCell>
        <mxCell id="CPf8XrMWJeluNs656hxi-68" value="*" style="edgeLabel;html=1;align=center;verticalAlign=middle;resizable=0;points=[];" vertex="1" connectable="0" parent="CPf8XrMWJeluNs656hxi-67">
          <mxGeometry x="-0.8213" y="2" relative="1" as="geometry">
            <mxPoint x="-2" y="4" as="offset" />
          </mxGeometry>
        </mxCell>
        <mxCell id="CPf8XrMWJeluNs656hxi-70" value="&lt;div style=&quot;text-align: left&quot;&gt;&lt;span&gt;&lt;b&gt;ProductProvider&lt;/b&gt;&lt;/span&gt;&lt;/div&gt;" style="swimlane;fontStyle=0;align=center;verticalAlign=middle;childLayout=stackLayout;horizontal=1;startSize=29;horizontalStack=0;resizeParent=1;resizeParentMax=0;resizeLast=0;collapsible=0;marginBottom=0;html=1;fontSize=12;labelPosition=center;verticalLabelPosition=middle;container=0;strokeColor=default;swimlaneLine=1;rounded=0;shadow=0;glass=0;sketch=0;perimeterSpacing=0;" vertex="1" parent="1">
          <mxGeometry x="380" y="740" width="120" height="263" as="geometry" />
        </mxCell>
        <mxCell id="CPf8XrMWJeluNs656hxi-71" value="- id: Long" style="text;strokeColor=none;fillColor=none;align=left;verticalAlign=top;spacingLeft=4;spacingRight=4;overflow=hidden;rotatable=0;points=[[0,0.5],[1,0.5]];portConstraint=eastwest;container=0;fontStyle=0" vertex="1" parent="CPf8XrMWJeluNs656hxi-70">
          <mxGeometry y="29" width="120" height="26" as="geometry" />
        </mxCell>
        <mxCell id="CPf8XrMWJeluNs656hxi-72" value="- code: String" style="text;strokeColor=none;fillColor=none;align=left;verticalAlign=top;spacingLeft=4;spacingRight=4;overflow=hidden;rotatable=0;points=[[0,0.5],[1,0.5]];portConstraint=eastwest;container=0;fontStyle=0" vertex="1" parent="CPf8XrMWJeluNs656hxi-70">
          <mxGeometry y="55" width="120" height="26" as="geometry" />
        </mxCell>
        <mxCell id="CPf8XrMWJeluNs656hxi-73" value="- name: String" style="text;strokeColor=none;fillColor=none;align=left;verticalAlign=top;spacingLeft=4;spacingRight=4;overflow=hidden;rotatable=0;points=[[0,0.5],[1,0.5]];portConstraint=eastwest;container=0;fontStyle=0" vertex="1" parent="CPf8XrMWJeluNs656hxi-70">
          <mxGeometry y="81" width="120" height="26" as="geometry" />
        </mxCell>
        <mxCell id="CPf8XrMWJeluNs656hxi-76" value="- description: String" style="text;strokeColor=none;fillColor=none;align=left;verticalAlign=top;spacingLeft=4;spacingRight=4;overflow=hidden;rotatable=0;points=[[0,0.5],[1,0.5]];portConstraint=eastwest;container=0;fontStyle=0" vertex="1" parent="CPf8XrMWJeluNs656hxi-70">
          <mxGeometry y="107" width="120" height="26" as="geometry" />
        </mxCell>
        <mxCell id="CPf8XrMWJeluNs656hxi-74" value="- logoUrl: String" style="text;strokeColor=none;fillColor=none;align=left;verticalAlign=top;spacingLeft=4;spacingRight=4;overflow=hidden;rotatable=0;points=[[0,0.5],[1,0.5]];portConstraint=eastwest;container=0;fontStyle=0" vertex="1" parent="CPf8XrMWJeluNs656hxi-70">
          <mxGeometry y="133" width="120" height="26" as="geometry" />
        </mxCell>
        <mxCell id="CPf8XrMWJeluNs656hxi-75" value="- country: UUID" style="text;strokeColor=none;fillColor=none;align=left;verticalAlign=top;spacingLeft=4;spacingRight=4;overflow=hidden;rotatable=0;points=[[0,0.5],[1,0.5]];portConstraint=eastwest;container=0;fontStyle=0" vertex="1" parent="CPf8XrMWJeluNs656hxi-70">
          <mxGeometry y="159" width="120" height="26" as="geometry" />
        </mxCell>
        <mxCell id="CPf8XrMWJeluNs656hxi-102" value="- currency: UUID" style="text;strokeColor=none;fillColor=none;align=left;verticalAlign=top;spacingLeft=4;spacingRight=4;overflow=hidden;rotatable=0;points=[[0,0.5],[1,0.5]];portConstraint=eastwest;container=0;fontStyle=0" vertex="1" parent="CPf8XrMWJeluNs656hxi-70">
          <mxGeometry y="185" width="120" height="26" as="geometry" />
        </mxCell>
        <mxCell id="CPf8XrMWJeluNs656hxi-77" value="- enabled: Boolean" style="text;strokeColor=none;fillColor=none;align=left;verticalAlign=top;spacingLeft=4;spacingRight=4;overflow=hidden;rotatable=0;points=[[0,0.5],[1,0.5]];portConstraint=eastwest;container=0;fontStyle=0" vertex="1" parent="CPf8XrMWJeluNs656hxi-70">
          <mxGeometry y="211" width="120" height="26" as="geometry" />
        </mxCell>
        <mxCell id="CPf8XrMWJeluNs656hxi-103" value="- fileDirectory: UUID" style="text;strokeColor=none;fillColor=none;align=left;verticalAlign=top;spacingLeft=4;spacingRight=4;overflow=hidden;rotatable=0;points=[[0,0.5],[1,0.5]];portConstraint=eastwest;container=0;fontStyle=0" vertex="1" parent="CPf8XrMWJeluNs656hxi-70">
          <mxGeometry y="237" width="120" height="26" as="geometry" />
        </mxCell>
        <mxCell id="CPf8XrMWJeluNs656hxi-86" value="1" style="edgeLabel;html=1;align=center;verticalAlign=middle;resizable=0;points=[];" vertex="1" connectable="0" parent="1">
          <mxGeometry x="318.00075268817204" y="713.9970967741934" as="geometry">
            <mxPoint x="3" y="2" as="offset" />
          </mxGeometry>
        </mxCell>
        <mxCell id="CPf8XrMWJeluNs656hxi-104" style="edgeStyle=orthogonalEdgeStyle;rounded=0;orthogonalLoop=1;jettySize=auto;html=1;endArrow=none;endFill=0;startSize=5;endSize=5;" edge="1" parent="1" source="CPf8XrMWJeluNs656hxi-88" target="CPf8XrMWJeluNs656hxi-22">
          <mxGeometry relative="1" as="geometry" />
        </mxCell>
        <mxCell id="CPf8XrMWJeluNs656hxi-105" value="*" style="edgeLabel;html=1;align=center;verticalAlign=middle;resizable=0;points=[];" vertex="1" connectable="0" parent="CPf8XrMWJeluNs656hxi-104">
          <mxGeometry x="-0.8774" y="-2" relative="1" as="geometry">
            <mxPoint y="2" as="offset" />
          </mxGeometry>
        </mxCell>
        <mxCell id="CPf8XrMWJeluNs656hxi-106" value="*" style="edgeLabel;html=1;align=center;verticalAlign=middle;resizable=0;points=[];" vertex="1" connectable="0" parent="CPf8XrMWJeluNs656hxi-104">
          <mxGeometry x="0.8838" y="1" relative="1" as="geometry">
            <mxPoint as="offset" />
          </mxGeometry>
        </mxCell>
        <mxCell id="CPf8XrMWJeluNs656hxi-88" value="&lt;b&gt;SupportSLAType&lt;/b&gt;" style="swimlane;fontStyle=0;align=center;verticalAlign=middle;childLayout=stackLayout;horizontal=1;startSize=29;horizontalStack=0;resizeParent=1;resizeParentMax=0;resizeLast=0;collapsible=0;marginBottom=0;html=1;fontSize=12;labelPosition=center;verticalLabelPosition=middle;container=0;strokeColor=default;swimlaneLine=1;rounded=0;shadow=0;glass=0;sketch=0;perimeterSpacing=0;" vertex="1" parent="1">
          <mxGeometry x="704" y="515" width="153" height="107" as="geometry" />
        </mxCell>
        <mxCell id="CPf8XrMWJeluNs656hxi-89" value="- firstResponseTime : Long" style="text;strokeColor=none;fillColor=none;align=left;verticalAlign=top;spacingLeft=4;spacingRight=4;overflow=hidden;rotatable=0;points=[[0,0.5],[1,0.5]];portConstraint=eastwest;container=0;fontStyle=0" vertex="1" parent="CPf8XrMWJeluNs656hxi-88">
          <mxGeometry y="29" width="153" height="26" as="geometry" />
        </mxCell>
        <mxCell id="CPf8XrMWJeluNs656hxi-90" value="- resolutionTime : Long" style="text;strokeColor=none;fillColor=none;align=left;verticalAlign=top;spacingLeft=4;spacingRight=4;overflow=hidden;rotatable=0;points=[[0,0.5],[1,0.5]];portConstraint=eastwest;container=0;fontStyle=0" vertex="1" parent="CPf8XrMWJeluNs656hxi-88">
          <mxGeometry y="55" width="153" height="26" as="geometry" />
        </mxCell>
        <mxCell id="CPf8XrMWJeluNs656hxi-91" value="- notes: String " style="text;strokeColor=none;fillColor=none;align=left;verticalAlign=top;spacingLeft=4;spacingRight=4;overflow=hidden;rotatable=0;points=[[0,0.5],[1,0.5]];portConstraint=eastwest;container=0;fontStyle=0" vertex="1" parent="CPf8XrMWJeluNs656hxi-88">
          <mxGeometry y="81" width="153" height="26" as="geometry" />
        </mxCell>
      </root>
    </mxGraphModel>
  </diagram>
</mxfile>
